<svg id="circuit_lines_updated_copy_2" data-name="circuit lines updated copy 2" xmlns="http://www.w3.org/2000/svg" width="2000" height="83" viewBox="0 0 2000 83">
  <defs>
    <style>
      .cls-1, .cls-2 {
        fill: none;
      }

      .cls-1, .cls-2, .cls-3, .cls-4 {
        stroke: #bababa;
        stroke-linecap: round;
        stroke-linejoin: round;
        stroke-width: 1px;
      }

      .cls-1, .cls-4 {
        fill-rule: evenodd;
      }

      .cls-3, .cls-4 {
        fill: #bababa;
      }
    </style>
  </defs>
  <path id="Shape_12_copy_2" data-name="Shape 12 copy 2" class="cls-1" d="M-14.5,897H583l63-68H943l24,25H2008" transform="translate(0 -814.5)"/>
  <path id="Shape_12_copy" data-name="Shape 12 copy" class="cls-1" d="M-16.5,892H581l61-68H958" transform="translate(0 -814.5)"/>
  <circle id="Ellipse_1_copy" data-name="Ellipse 1 copy" class="cls-2" cx="962" cy="9.5" r="4"/>
  <path id="Shape_12_copy_4" data-name="Shape 12 copy 4" class="cls-1" d="M2009,860H964l-22-24H703" transform="translate(0 -814.5)"/>
  <circle id="Ellipse_1_copy_2" data-name="Ellipse 1 copy 2" class="cls-2" cx="699" cy="21.5" r="4"/>
  <path class="cls-1" d="M613,844l25-26H812" transform="translate(0 -814.5)"/>
  <circle class="cls-3" cx="815" cy="3.5" r="3"/>
  <path id="Ellipse_2_copy" data-name="Ellipse 2 copy" class="cls-4" d="M612,843a3,3,0,1,1-3,3A3,3,0,0,1,612,843Zm-71.5,40a2.5,2.5,0,1,1-2.5,2.5A2.5,2.5,0,0,1,540.5,883Z" transform="translate(0 -814.5)"/>
  <circle id="Ellipse_2_copy_2" data-name="Ellipse 2 copy 2" class="cls-3" cx="529.5" cy="71" r="2.5"/>
  <circle id="Ellipse_2_copy_3" data-name="Ellipse 2 copy 3" class="cls-3" cx="519.5" cy="71" r="2.5"/>
  <circle id="Ellipse_2_copy_4" data-name="Ellipse 2 copy 4" class="cls-3" cx="1006.5" cy="32" r="2.5"/>
  <circle id="Ellipse_2_copy_4-2" data-name="Ellipse 2 copy 4" class="cls-3" cx="996.5" cy="32" r="2.5"/>
  <circle id="Ellipse_2_copy_4-3" data-name="Ellipse 2 copy 4" class="cls-3" cx="986.5" cy="32" r="2.5"/>
</svg>
